<svg width="64" height="59" viewBox="0 0 64 59" fill="none" xmlns="http://www.w3.org/2000/svg">
<g clip-path="url(#clip0_2_2)">
<path d="M46.5095 7.13192C48.544 7.13192 50.1934 5.55214 50.1934 3.60342C50.1934 1.6547 48.544 0.0749512 46.5095 0.0749512C44.4749 0.0749512 42.8256 1.6547 42.8256 3.60342C42.8256 5.55214 44.4749 7.13192 46.5095 7.13192Z" fill="white"/>
<path d="M50.6505 56.9729C52.6848 56.9729 54.3345 55.3927 54.3345 53.4442C54.3345 51.4952 52.6848 49.9155 50.6505 49.9155C48.6159 49.9155 46.9666 51.4952 46.9666 53.4442C46.9666 55.3927 48.6159 56.9729 50.6505 56.9729Z" fill="white"/>
<path d="M47.561 15.9525C49.2685 15.9525 50.6528 14.6266 50.6528 12.9911C50.6528 11.3555 49.2685 10.0297 47.561 10.0297C45.8534 10.0297 44.4691 11.3555 44.4691 12.9911C44.4691 14.6266 45.8534 15.9525 47.561 15.9525Z" fill="white"/>
<path d="M55.7829 17.0861C57.491 17.0861 58.8749 15.7603 58.8749 14.1247C58.8749 12.4892 57.491 11.1633 55.7829 11.1633C54.0754 11.1633 52.6915 12.4892 52.6915 14.1247C52.6915 15.7603 54.0754 17.0861 55.7829 17.0861Z" fill="white"/>
<path d="M46.5074 23.4518C47.9606 23.4518 49.1387 22.3234 49.1387 20.9315C49.1387 19.5395 47.9606 18.4111 46.5074 18.4111C45.0541 18.4111 43.876 19.5395 43.876 20.9315C43.876 22.3234 45.0541 23.4518 46.5074 23.4518Z" fill="white"/>
<path d="M54.7297 24.523C56.1828 24.523 57.3609 23.3946 57.3609 22.0026C57.3609 20.6107 56.1828 19.4823 54.7297 19.4823C53.2762 19.4823 52.0981 20.6107 52.0981 22.0026C52.0981 23.3946 53.2762 24.523 54.7297 24.523Z" fill="white"/>
<path d="M61.3084 26.9794C62.7615 26.9794 63.9396 25.851 63.9396 24.4591C63.9396 23.0671 62.7615 21.9387 61.3084 21.9387C59.8548 21.9387 58.6767 23.0671 58.6767 24.4591C58.6767 25.851 59.8548 26.9794 61.3084 26.9794Z" fill="white"/>
<path d="M52.2998 30.5712C53.5716 30.5712 54.6023 29.5839 54.6023 28.366C54.6023 27.148 53.5716 26.1606 52.2998 26.1606C51.0282 26.1606 49.9974 27.148 49.9974 28.366C49.9974 29.5839 51.0282 30.5712 52.2998 30.5712Z" fill="white"/>
<path d="M44.0777 29.4999C45.3493 29.4999 46.3801 28.5126 46.3801 27.2946C46.3801 26.0767 45.3493 25.0894 44.0777 25.0894C42.8061 25.0894 41.7753 26.0767 41.7753 27.2946C41.7753 28.5126 42.8061 29.4999 44.0777 29.4999Z" fill="white"/>
<path d="M58.9445 33.0272C60.2158 33.0272 61.247 32.0399 61.247 30.8219C61.247 29.6039 60.2158 28.6166 58.9445 28.6166C57.6727 28.6166 56.6421 29.6039 56.6421 30.8219C56.6421 32.0399 57.6727 33.0272 58.9445 33.0272Z" fill="white"/>
<path d="M49.0107 35.1694C50.1007 35.1694 50.9842 34.3231 50.9842 33.2792C50.9842 32.2352 50.1007 31.3889 49.0107 31.3889C47.9208 31.3889 47.0372 32.2352 47.0372 33.2792C47.0372 34.3231 47.9208 35.1694 49.0107 35.1694Z" fill="white"/>
<path d="M55.6554 37.5648C56.7455 37.5648 57.6287 36.7185 57.6287 35.6746C57.6287 34.6306 56.7455 33.7843 55.6554 33.7843C54.5654 33.7843 53.6817 34.6306 53.6817 35.6746C53.6817 36.7185 54.5654 37.5648 55.6554 37.5648Z" fill="white"/>
<path d="M40.8538 34.0352C41.9437 34.0352 42.8273 33.1889 42.8273 32.145C42.8273 31.101 41.9437 30.2548 40.8538 30.2548C39.7639 30.2548 38.8802 31.101 38.8802 32.145C38.8802 33.1889 39.7639 34.0352 40.8538 34.0352Z" fill="white"/>
<path d="M45.3894 38.257C46.2977 38.257 47.034 37.5518 47.034 36.6818C47.034 35.8118 46.2977 35.1066 45.3894 35.1066C44.4811 35.1066 43.7448 35.8118 43.7448 36.6818C43.7448 37.5518 44.4811 38.257 45.3894 38.257Z" fill="white"/>
<path d="M48.2182 42.6055C49.0175 42.6055 49.6654 41.9849 49.6654 41.2193C49.6654 40.4538 49.0175 39.8331 48.2182 39.8331C47.4189 39.8331 46.771 40.4538 46.771 41.2193C46.771 41.9849 47.4189 42.6055 48.2182 42.6055Z" fill="white"/>
<path d="M44.7333 43.4886C45.3873 43.4886 45.9174 42.9808 45.9174 42.3545C45.9174 41.7281 45.3873 41.2203 44.7333 41.2203C44.0793 41.2203 43.5492 41.7281 43.5492 42.3545C43.5492 42.9808 44.0793 43.4886 44.7333 43.4886Z" fill="white"/>
<path d="M41.6388 40.2119C42.4381 40.2119 43.086 39.5914 43.086 38.8258C43.086 38.0602 42.4381 37.4396 41.6388 37.4396C40.8395 37.4396 40.1915 38.0602 40.1915 38.8258C40.1915 39.5914 40.8395 40.2119 41.6388 40.2119Z" fill="white"/>
<path d="M37.1673 37.1882C38.0756 37.1882 38.8119 36.483 38.8119 35.613C38.8119 34.7431 38.0756 34.0378 37.1673 34.0378C36.259 34.0378 35.5227 34.7431 35.5227 35.613C35.5227 36.483 36.259 37.1882 37.1673 37.1882Z" fill="white"/>
<path d="M37.1021 25.3397C38.0104 25.3397 38.7467 24.6345 38.7467 23.7645C38.7467 22.8946 38.0104 22.1893 37.1021 22.1893C36.1938 22.1893 35.4575 22.8946 35.4575 23.7645C35.4575 24.6345 36.1938 25.3397 37.1021 25.3397Z" fill="white"/>
<path d="M37.8247 19.7958C38.6239 19.7958 39.2719 19.1752 39.2719 18.4096C39.2719 17.6441 38.6239 17.0234 37.8247 17.0234C37.0254 17.0234 36.3774 17.6441 36.3774 18.4096C36.3774 19.1752 37.0254 19.7958 37.8247 19.7958Z" fill="white"/>
<path d="M39.4061 15.2605C40.0601 15.2605 40.5902 14.7527 40.5902 14.1264C40.5902 13.5 40.0601 12.9922 39.4061 12.9922C38.7521 12.9922 38.222 13.5 38.222 14.1264C38.222 14.7527 38.7521 15.2605 39.4061 15.2605Z" fill="white"/>
<path d="M36.6438 13.1181C37.4431 13.1181 38.0911 12.4974 38.0911 11.7319C38.0911 10.9663 37.4431 10.3457 36.6438 10.3457C35.8446 10.3457 35.1966 10.9663 35.1966 11.7319C35.1966 12.4974 35.8446 13.1181 36.6438 13.1181Z" fill="white"/>
<path d="M51.969 40.653C52.8773 40.653 53.6136 39.9477 53.6136 39.0778C53.6136 38.2078 52.8773 37.5026 51.969 37.5026C51.0606 37.5026 50.3243 38.2078 50.3243 39.0778C50.3243 39.9477 51.0606 40.653 51.969 40.653Z" fill="white"/>
<path d="M32.8905 11.2908C33.7988 11.2908 34.5351 10.5856 34.5351 9.71563C34.5351 8.84563 33.7988 8.14038 32.8905 8.14038C31.9822 8.14038 31.2459 8.84563 31.2459 9.71563C31.2459 10.5856 31.9822 11.2908 32.8905 11.2908Z" fill="white"/>
<path d="M34.0114 17.9691C34.9197 17.9691 35.656 17.2638 35.656 16.3939C35.656 15.5238 34.9197 14.8186 34.0114 14.8186C33.1032 14.8186 32.3669 15.5238 32.3669 16.3939C32.3669 17.2638 33.1032 17.9691 34.0114 17.9691Z" fill="white"/>
<path d="M32.169 24.334C33.2589 24.334 34.1425 23.4877 34.1425 22.4437C34.1425 21.3998 33.2589 20.5535 32.169 20.5535C31.0791 20.5535 30.1955 21.3998 30.1955 22.4437C30.1955 23.4877 31.0791 24.334 32.169 24.334Z" fill="white"/>
<path d="M26.1801 24.3322C27.4518 24.3322 28.4826 23.3449 28.4826 22.1269C28.4826 20.9089 27.4518 19.9216 26.1801 19.9216C24.9085 19.9216 23.8777 20.9089 23.8777 22.1269C23.8777 23.3449 24.9085 24.3322 26.1801 24.3322Z" fill="white"/>
<path d="M19.2069 25.8454C20.6601 25.8454 21.8382 24.7169 21.8382 23.325C21.8382 21.9331 20.6601 20.8047 19.2069 20.8047C17.7536 20.8047 16.5755 21.9331 16.5755 23.325C16.5755 24.7169 17.7536 25.8454 19.2069 25.8454Z" fill="white"/>
<path d="M11.581 29.4364C13.2886 29.4364 14.6728 28.1105 14.6728 26.475C14.6728 24.8394 13.2886 23.5135 11.581 23.5135C9.87341 23.5135 8.48917 24.8394 8.48917 26.475C8.48917 28.1105 9.87341 29.4364 11.581 29.4364Z" fill="white"/>
<path d="M3.6839 35.4858C5.71848 35.4858 7.36778 33.906 7.36778 31.9573C7.36778 30.0086 5.71848 28.4288 3.6839 28.4288C1.64934 28.4288 0 30.0086 0 31.9573C0 33.906 1.64934 35.4858 3.6839 35.4858Z" fill="white"/>
<path d="M8.48424 22.0662C10.1918 22.0662 11.5761 20.7404 11.5761 19.1048C11.5761 17.4693 10.1918 16.1434 8.48424 16.1434C6.77667 16.1434 5.39243 17.4693 5.39243 19.1048C5.39243 20.7404 6.77667 22.0662 8.48424 22.0662Z" fill="white"/>
<path d="M16.1155 18.4722C17.5688 18.4722 18.7468 17.3438 18.7468 15.9519C18.7468 14.5599 17.5688 13.4315 16.1155 13.4315C14.6622 13.4315 13.4841 14.5599 13.4841 15.9519C13.4841 17.3438 14.6622 18.4722 16.1155 18.4722Z" fill="white"/>
<path d="M14.9999 11.7934C16.4531 11.7934 17.6312 10.665 17.6312 9.27302C17.6312 7.88106 16.4531 6.75269 14.9999 6.75269C13.5466 6.75269 12.3685 7.88106 12.3685 9.27302C12.3685 10.665 13.5466 11.7934 14.9999 11.7934Z" fill="white"/>
<path d="M21.9739 10.2832C23.2455 10.2832 24.2763 9.29584 24.2763 8.07788C24.2763 6.85992 23.2455 5.87256 21.9739 5.87256C20.7023 5.87256 19.6715 6.85992 19.6715 8.07788C19.6715 9.29584 20.7023 10.2832 21.9739 10.2832Z" fill="white"/>
<path d="M27.9574 10.2831C29.0473 10.2831 29.9309 9.43678 29.9309 8.39283C29.9309 7.34887 29.0473 6.50256 27.9574 6.50256C26.8674 6.50256 25.9839 7.34887 25.9839 8.39283C25.9839 9.43678 26.8674 10.2831 27.9574 10.2831Z" fill="white"/>
<path d="M29.0784 16.9609C30.1683 16.9609 31.0519 16.1146 31.0519 15.0707C31.0519 14.0267 30.1683 13.1804 29.0784 13.1804C27.9884 13.1804 27.1049 14.0267 27.1049 15.0707C27.1049 16.1146 27.9884 16.9609 29.0784 16.9609Z" fill="white"/>
<path d="M23.0896 17.024C24.3611 17.024 25.392 16.0366 25.392 14.8187C25.392 13.6008 24.3611 12.6134 23.0896 12.6134C21.818 12.6134 20.7871 13.6008 20.7871 14.8187C20.7871 16.0366 21.818 17.024 23.0896 17.024Z" fill="white"/>
<path d="M16.5788 33.7849C17.2327 33.7849 17.7629 33.2771 17.7629 32.6507C17.7629 32.0243 17.2327 31.5166 16.5788 31.5166C15.9248 31.5166 15.3947 32.0243 15.3947 32.6507C15.3947 33.2771 15.9248 33.7849 16.5788 33.7849Z" fill="white"/>
<path d="M21.3143 33.2183C22.1136 33.2183 22.7616 32.5977 22.7616 31.8321C22.7616 31.0666 22.1136 30.4459 21.3143 30.4459C20.5151 30.4459 19.8671 31.0666 19.8671 31.8321C19.8671 32.5977 20.5151 33.2183 21.3143 33.2183Z" fill="white"/>
<path d="M26.5129 31.3281C27.4211 31.3281 28.1574 30.6228 28.1574 29.7529C28.1574 28.8829 27.4211 28.1776 26.5129 28.1776C25.6046 28.1776 24.8683 28.8829 24.8683 29.7529C24.8683 30.6228 25.6046 31.3281 26.5129 31.3281Z" fill="white"/>
<path d="M27.7609 36.3683C28.8509 36.3683 29.7345 35.522 29.7345 34.478C29.7345 33.4341 28.8509 32.5878 27.7609 32.5878C26.671 32.5878 25.7874 33.4341 25.7874 34.478C25.7874 35.522 26.671 36.3683 27.7609 36.3683Z" fill="white"/>
<path d="M21.4465 37.5648C22.3548 37.5648 23.0911 36.8595 23.0911 35.9895C23.0911 35.1196 22.3548 34.4143 21.4465 34.4143C20.5382 34.4143 19.8019 35.1196 19.8019 35.9895C19.8019 36.8595 20.5382 37.5648 21.4465 37.5648Z" fill="white"/>
<path d="M15.8514 37.5031C16.6506 37.5031 17.2986 36.8824 17.2986 36.1169C17.2986 35.3513 16.6506 34.7307 15.8514 34.7307C15.0521 34.7307 14.4041 35.3513 14.4041 36.1169C14.4041 36.8824 15.0521 37.5031 15.8514 37.5031Z" fill="white"/>
<path d="M15.9183 41.8499C16.8266 41.8499 17.5629 41.1447 17.5629 40.2747C17.5629 39.4047 16.8266 38.6995 15.9183 38.6995C15.01 38.6995 14.2737 39.4047 14.2737 40.2747C14.2737 41.1447 15.01 41.8499 15.9183 41.8499Z" fill="white"/>
<path d="M22.6302 42.6678C23.7201 42.6678 24.6037 41.8215 24.6037 40.7776C24.6037 39.7336 23.7201 38.8873 22.6302 38.8873C21.5403 38.8873 20.6566 39.7336 20.6566 40.7776C20.6566 41.8215 21.5403 42.6678 22.6302 42.6678Z" fill="white"/>
<path d="M30.4577 41.8502C31.7293 41.8502 32.7602 40.8629 32.7602 39.6449C32.7602 38.4269 31.7293 37.4396 30.4577 37.4396C29.1861 37.4396 28.1553 38.4269 28.1553 39.6449C28.1553 40.8629 29.1861 41.8502 30.4577 41.8502Z" fill="white"/>
<path d="M35.0634 47.3298C36.5167 47.3298 37.6948 46.2014 37.6948 44.8094C37.6948 43.4175 36.5167 42.2891 35.0634 42.2891C33.6102 42.2891 32.4321 43.4175 32.4321 44.8094C32.4321 46.2014 33.6102 47.3298 35.0634 47.3298Z" fill="white"/>
<path d="M25.3914 48.0874C26.663 48.0874 27.6938 47.1 27.6938 45.882C27.6938 44.6641 26.663 43.6768 25.3914 43.6768C24.1198 43.6768 23.089 44.6641 23.089 45.882C23.089 47.1 24.1198 48.0874 25.3914 48.0874Z" fill="white"/>
<path d="M19.9329 52.3724C21.2045 52.3724 22.2354 51.3846 22.2354 50.1668C22.2354 48.9489 21.2045 47.9615 19.9329 47.9615C18.6613 47.9615 17.6305 48.9489 17.6305 50.1668C17.6305 51.3846 18.6613 52.3724 19.9329 52.3724Z" fill="white"/>
<path d="M24.4688 57.9164C25.9221 57.9164 27.1002 56.788 27.1002 55.3961C27.1002 54.0042 25.9221 52.8759 24.4688 52.8759C23.0156 52.8759 21.8375 54.0042 21.8375 55.3961C21.8375 56.788 23.0156 57.9164 24.4688 57.9164Z" fill="white"/>
<path d="M36.5743 58.9243C38.2819 58.9243 39.6662 57.5988 39.6662 55.963C39.6662 54.3272 38.2819 53.0017 36.5743 53.0017C34.8667 53.0017 33.4825 54.3272 33.4825 55.963C33.4825 57.5988 34.8667 58.9243 36.5743 58.9243Z" fill="white"/>
<path d="M29.9319 53.6315C31.3852 53.6315 32.5633 52.5031 32.5633 51.1112C32.5633 49.7193 31.3852 48.5909 29.9319 48.5909C28.4786 48.5909 27.3006 49.7193 27.3006 51.1112C27.3006 52.5031 28.4786 53.6315 29.9319 53.6315Z" fill="white"/>
<path d="M41.6399 52.6251C43.3475 52.6251 44.7317 51.2991 44.7317 49.6633C44.7317 48.028 43.3475 46.7021 41.6399 46.7021C39.9323 46.7021 38.5481 48.028 38.5481 49.6633C38.5481 51.2991 39.9323 52.6251 41.6399 52.6251Z" fill="white"/>
<path d="M17.1664 46.9526C18.2563 46.9526 19.1399 46.1063 19.1399 45.0624C19.1399 44.0184 18.2563 43.1721 17.1664 43.1721C16.0764 43.1721 15.1929 44.0184 15.1929 45.0624C15.1929 46.1063 16.0764 46.9526 17.1664 46.9526Z" fill="white"/>
</g>
<defs>
<clipPath id="clip0_2_2">
<rect width="64" height="59" fill="white"/>
</clipPath>
</defs>
</svg>
